<?xml version="1.0" standalone="no"?>
<!DOCTYPE svg PUBLIC "-//W3C//DTD SVG 20010904//EN"
 "http://www.w3.org/TR/2001/REC-SVG-20010904/DTD/svg10.dtd">
<svg version="1.0" xmlns="http://www.w3.org/2000/svg"
 width="500.000000pt" height="501.000000pt" viewBox="0 0 500.000000 501.000000"
 preserveAspectRatio="xMidYMid meet">

<g transform="translate(0.000000,501.000000) scale(0.100000,-0.100000)"
fill="#000000" stroke="none">
<path d="M2260 5000 c-304 -32 -583 -111 -855 -244 -627 -307 -1097 -859
-1298 -1526 -75 -247 -102 -440 -102 -725 0 -285 27 -478 102 -725 201 -667
671 -1219 1298 -1526 235 -114 476 -189 745 -231 161 -25 539 -25 700 0 555
86 1027 323 1416 711 493 494 750 1139 731 1836 -11 383 -88 702 -252 1035
-129 264 -270 461 -479 671 -386 385 -862 626 -1406 709 -123 19 -476 28 -600
15z m600 -85 c402 -63 776 -219 1100 -461 58 -43 171 -144 251 -224 381 -378
606 -821 696 -1365 22 -137 25 -552 5 -685 -69 -446 -217 -804 -474 -1148 -97
-129 -348 -379 -478 -476 -269 -200 -585 -348 -895 -421 -214 -50 -305 -60
-565 -60 -263 0 -358 11 -570 62 -881 212 -1574 905 -1791 1788 -52 215 -64
317 -64 580 0 263 12 365 64 580 145 590 505 1105 1011 1445 316 213 676 345
1070 396 139 17 497 12 640 -11z"/>
<path d="M2195 4841 c-12 -12 -192 -51 -242 -53 -32 -1 -33 -3 -33 -45 0 -23
5 -43 10 -43 6 0 10 7 10 15 0 46 85 75 94 33 27 -125 46 -240 41 -248 -3 -5
-13 -10 -21 -10 -8 0 -14 -4 -14 -10 0 -13 5 -13 90 2 65 11 95 28 51 28 -11
0 -22 4 -25 9 -4 6 -56 254 -56 268 0 1 14 5 32 8 27 6 36 3 55 -20 31 -35 37
-27 27 30 -6 32 -12 43 -19 36z"/>
<path d="M2454 4832 c-13 -10 -39 -66 -65 -142 -24 -70 -53 -135 -66 -148 -13
-13 -23 -25 -23 -27 0 -2 25 -2 55 -2 56 2 67 9 39 25 -13 7 -14 15 -4 50 11
41 11 42 56 42 47 0 48 -1 68 -67 6 -17 3 -23 -8 -23 -9 0 -16 -4 -16 -10 0
-6 32 -10 75 -10 79 0 91 5 51 19 -19 8 -33 37 -77 160 -30 83 -56 151 -59
151 -3 0 -15 -8 -26 -18z m9 -127 l16 -45 -34 0 -33 0 10 38 c18 66 21 66 41
7z"/>
<path d="M2721 4828 c-19 -52 -22 -68 -12 -68 6 0 15 9 21 19 13 25 41 34 72
22 l25 -9 -18 -114 c-27 -163 -26 -158 -54 -158 -46 0 -26 -17 28 -24 28 -4
67 -9 85 -12 35 -7 46 10 12 19 -13 3 -20 13 -20 29 0 31 35 247 41 253 3 2
18 1 34 -3 28 -8 37 -18 50 -57 l7 -20 8 20 c4 11 11 34 14 52 6 28 5 31 -12
26 -23 -6 -229 25 -255 39 -13 7 -19 4 -26 -14z"/>
<path d="M3135 4740 c17 -19 16 -24 -25 -145 -42 -121 -44 -125 -71 -125 -16
0 -29 -3 -29 -8 0 -5 193 -77 246 -90 13 -3 55 58 48 70 -3 5 -17 -1 -31 -12
-14 -11 -33 -20 -43 -20 -29 0 -78 21 -84 36 -9 24 25 114 43 114 23 0 62 -29
59 -43 -2 -7 1 -14 6 -17 5 -3 17 19 27 48 18 52 13 66 -12 36 -8 -10 -21 -13
-38 -9 -41 10 -44 20 -26 75 16 48 19 51 44 45 44 -11 71 -34 71 -60 0 -37 18
-30 29 12 6 20 9 38 8 39 -6 4 -223 74 -231 74 -5 0 -1 -9 9 -20z"/>
<path d="M1704 4716 c-68 -30 -93 -99 -53 -149 18 -24 38 -32 121 -51 58 -13
78 -72 34 -101 -21 -14 -28 -14 -59 -2 -19 8 -38 20 -41 26 -4 6 -14 11 -22
11 -12 0 -11 -8 6 -40 22 -44 36 -48 102 -28 46 14 98 69 98 104 0 60 -37 94
-120 109 -59 11 -70 16 -80 36 -14 25 3 57 35 65 16 4 34 -1 55 -16 38 -27 46
-21 25 19 -18 35 -48 40 -101 17z"/>
<path d="M3778 4438 c20 -20 14 -37 -32 -96 -85 -112 -103 -161 -75 -213 20
-37 89 -79 132 -79 43 0 69 22 166 139 36 44 47 52 67 47 13 -4 24 -3 24 2 0
13 -99 82 -104 73 -3 -5 1 -14 9 -21 8 -7 15 -16 15 -20 0 -5 -27 -45 -60 -90
-81 -109 -122 -126 -177 -77 -42 38 -28 79 65 200 37 50 48 58 68 53 39 -10
28 9 -31 53 -51 38 -96 58 -67 29z"/>
<path d="M2296 4419 c-389 -41 -765 -208 -1072 -476 -272 -238 -488 -592 -584
-958 -71 -273 -78 -590 -19 -879 64 -309 226 -630 443 -878 244 -279 597 -494
961 -587 440 -112 906 -65 1311 133 402 197 700 497 894 898 462 957 58 2107
-901 2567 -323 155 -680 217 -1033 180z m409 -49 c635 -73 1182 -455 1468
-1027 144 -285 204 -566 194 -896 -9 -299 -63 -518 -194 -781 -452 -910 -1554
-1292 -2470 -856 -399 190 -703 494 -893 893 -277 582 -232 1278 115 1814 264
406 658 690 1121 807 202 51 456 69 659 46z"/>
<path d="M2473 4247 c-21 -46 -132 -173 -197 -225 -198 -161 -455 -239 -692
-212 -49 5 -105 14 -124 20 -19 5 -37 6 -41 2 -8 -9 -34 -163 -50 -302 -16
-135 -16 -534 0 -669 10 -85 10 -106 -1 -117 -22 -21 -195 -93 -348 -145 -160
-54 -195 -78 -184 -127 19 -85 139 -429 152 -440 36 -29 122 19 122 67 0 13
17 25 63 41 34 12 117 46 184 75 l122 53 32 -97 c174 -531 491 -1022 890
-1382 l79 -71 47 38 c153 126 359 349 498 539 160 219 317 513 419 783 29 78
55 145 58 147 2 2 38 -7 79 -21 125 -42 250 -59 343 -46 43 6 93 20 110 30
l31 18 22 244 c21 221 21 246 7 267 -32 50 -121 53 -165 7 -21 -22 -22 -28
-11 -57 7 -19 12 -43 12 -55 0 -18 -4 -20 -37 -16 -64 9 -196 44 -242 65 -41
18 -43 21 -37 51 22 128 30 253 30 483 0 252 -4 306 -41 538 -16 101 -18 108
-37 102 -129 -37 -228 -43 -379 -20 -158 24 -315 85 -432 169 -73 52 -185 167
-225 230 -19 30 -38 55 -41 56 -3 0 -11 -10 -16 -23z m72 -127 c57 -64 137
-136 201 -181 73 -50 242 -125 334 -149 112 -29 308 -37 402 -18 l67 14 5 -25
c48 -232 61 -643 31 -906 -9 -77 -19 -143 -21 -147 -7 -11 -92 37 -228 129
l-109 73 -91 -39 c-443 -189 -949 -184 -1353 15 l-88 43 -70 -44 c-93 -57
-197 -116 -201 -113 -1 2 -8 57 -14 123 -16 154 -16 480 -1 615 14 115 37 260
44 266 2 3 47 0 98 -7 221 -27 456 24 645 140 87 54 210 163 259 230 17 22 33
39 36 38 3 -1 27 -27 54 -57z m-770 -1269 c109 -51 255 -98 378 -123 148 -30
462 -32 602 -5 138 27 264 63 371 106 l96 39 97 -63 c182 -119 367 -200 529
-231 94 -18 150 -18 185 0 l27 15 0 -37 c-1 -40 -15 -207 -26 -284 l-6 -46
-64 -18 c-182 -49 -463 32 -702 204 l-76 54 -100 -31 c-233 -71 -420 -96 -674
-88 -229 6 -382 33 -589 102 l-72 24 -103 -64 c-136 -86 -275 -155 -423 -209
-66 -24 -121 -43 -123 -42 -1 2 -25 83 -52 181 -27 98 -55 182 -62 187 -15 9
-57 2 -76 -14 -7 -6 -10 -19 -7 -29 7 -21 5 -22 -19 -13 -19 7 -21 37 -3 52 6
5 48 20 92 31 174 48 450 173 640 290 44 27 82 48 85 47 3 -1 37 -17 75 -35z
m2277 -143 c20 -16 24 -36 15 -65 -11 -32 -37 -38 -37 -9 0 22 -3 24 -40 19
-32 -5 -41 -2 -46 12 -15 39 70 72 108 43z m-42 -93 c0 -9 -9 -15 -25 -15 -31
0 -33 17 -2 23 12 2 23 5 25 6 1 0 2 -6 2 -14z m-3040 -129 c0 -15 -24 -28
-34 -19 -13 14 -5 33 14 33 11 0 20 -6 20 -14z m62 -203 c37 -134 44 -172 35
-190 -10 -23 -52 -42 -64 -29 -3 3 -34 89 -69 190 l-63 185 33 -6 c19 -3 42 0
52 6 11 6 21 11 25 11 3 0 26 -75 51 -167z m830 113 c199 -61 377 -86 608 -86
234 0 389 21 600 81 l105 30 111 -74 c62 -40 125 -79 142 -86 l30 -13 -23 -66
c-126 -370 -311 -701 -564 -1012 -81 -100 -365 -390 -381 -390 -15 0 -245 227
-329 325 -273 318 -494 709 -611 1083 -23 74 -27 98 -18 104 7 4 60 36 118 72
58 36 111 64 117 61 7 -2 50 -16 95 -29z"/>
<path d="M2452 3844 c-29 -12 -36 -23 -44 -78 -2 -15 -17 -23 -63 -33 -94 -21
-235 -95 -304 -158 l-60 -56 -16 31 c-9 17 -13 40 -10 51 9 27 -4 79 -19 79
-8 0 -12 -16 -12 -47 l1 -48 -35 0 c-34 0 -35 1 -34 35 1 19 7 50 15 67 12 29
11 35 -4 50 -16 16 -17 15 -17 -17 0 -19 -7 -44 -15 -54 -8 -11 -15 -38 -15
-60 -1 -55 -30 -90 -76 -90 -19 0 -34 -2 -34 -5 0 -14 163 -125 240 -165 94
-49 244 -103 360 -131 41 -10 76 -18 77 -19 0 -1 4 -17 8 -38 6 -31 4 -37 -15
-43 -29 -9 -95 -69 -119 -109 -28 -45 -42 -113 -26 -126 7 -6 50 -20 96 -31
101 -26 247 -22 344 8 l60 19 -2 44 c-3 55 -44 123 -100 166 -23 18 -47 34
-52 35 -6 3 -8 19 -5 39 6 35 6 35 95 57 204 50 379 186 379 295 l0 38 70 0
70 0 0 -29 c0 -33 -21 -53 -110 -104 -41 -24 -58 -41 -68 -69 -13 -34 -13 -40
2 -63 25 -38 59 -51 94 -36 33 14 56 54 47 81 -4 13 1 19 19 24 40 10 102 76
115 121 6 22 11 70 11 108 l0 67 -180 0 -180 0 0 -45 0 -46 -52 40 c-68 51
-204 116 -275 132 -47 11 -54 15 -49 32 14 56 -54 106 -112 81z m73 -34 c16
-18 17 -33 1 -70 -5 -13 6 -19 56 -29 117 -24 273 -106 342 -180 l30 -31 -472
0 c-290 0 -472 4 -472 9 0 17 112 102 179 136 77 38 190 75 233 75 25 0 29 3
23 18 -17 39 -16 51 4 71 26 26 53 27 76 1z m745 -244 c0 -105 -25 -148 -114
-193 -36 -18 -46 -27 -37 -36 34 -34 -16 -81 -64 -59 -29 13 -33 46 -9 80 8
12 42 36 74 52 76 38 102 71 98 124 l-3 41 -75 -1 c-131 -2 -120 2 -120 -52 0
-38 -6 -58 -29 -90 -67 -91 -236 -181 -386 -204 -51 -8 -72 -15 -65 -22 15
-15 12 -66 -5 -72 -24 -10 -18 -18 30 -38 78 -32 171 -164 138 -197 -40 -40
-270 -53 -383 -21 -62 17 -65 19 -62 47 7 62 68 134 143 170 43 19 45 23 33
40 -17 23 -18 57 -2 73 9 9 7 12 -11 12 -32 0 -207 45 -293 76 -89 32 -229
103 -294 149 l-49 35 593 0 592 0 0 75 0 75 150 0 150 0 0 -64z m-1319 -43 c8
-23 7 -23 -72 -23 l-80 0 18 25 c16 22 24 25 72 22 45 -2 55 -5 62 -24z"/>
<path d="M2457 3671 c-24 -29 -40 -70 -49 -126 -3 -18 3 -20 80 -23 64 -2 82
0 82 11 0 30 -32 105 -58 137 l-28 33 -27 -32z m62 -49 c40 -80 40 -82 -28
-82 -68 0 -72 5 -46 67 31 73 43 75 74 15z"/>
<path d="M2375 3666 c-46 -21 -115 -85 -115 -106 0 -4 -3 -15 -6 -24 -5 -13 3
-16 53 -16 l58 0 12 51 c7 29 24 67 38 85 31 40 26 41 -40 10z m-12 -74 c-16
-49 -19 -52 -50 -52 -37 0 -42 13 -15 48 17 22 73 64 79 59 1 -2 -5 -26 -14
-55z"/>
<path d="M2564 3628 c18 -35 35 -73 38 -85 5 -21 12 -23 63 -23 48 0 56 3 51
16 -3 9 -6 20 -6 24 0 5 -14 25 -32 45 -30 35 -77 64 -125 79 -21 7 -20 4 11
-56z m65 -2 c68 -51 79 -86 26 -86 -19 0 -35 5 -35 10 0 6 -9 30 -20 52 -11
23 -20 43 -20 45 0 9 20 0 49 -21z"/>
<path d="M2233 3629 c-29 -11 -74 -40 -100 -64 l-48 -44 62 -1 c53 0 63 3 68
20 4 11 22 41 41 65 18 25 33 45 31 44 -1 0 -25 -9 -54 -20z m-13 -34 c0 -20
-36 -55 -56 -55 -33 0 -30 11 9 37 32 22 47 27 47 18z"/>
<path d="M2704 3619 c15 -17 33 -44 42 -60 14 -27 18 -29 75 -29 l61 0 -43 36
c-43 36 -129 84 -150 84 -6 0 1 -14 15 -31z m111 -56 c18 -12 18 -13 -11 -13
-23 0 -34 7 -49 32 l-19 33 29 -19 c17 -11 39 -25 50 -33z"/>
<path d="M2099 3412 c34 -66 103 -117 186 -136 l30 -7 -42 43 c-23 24 -51 64
-63 91 l-21 47 -55 0 -54 0 19 -38z m107 -42 c17 -33 28 -60 24 -60 -12 0 -99
80 -111 101 -9 17 -6 19 23 19 30 0 36 -5 64 -60z"/>
<path d="M2244 3418 c14 -68 80 -134 169 -167 l28 -11 -25 43 c-23 40 -37 80
-50 140 -6 26 -9 27 -67 27 l-61 0 6 -32z m110 -29 c4 -23 14 -55 22 -71 9
-16 14 -32 11 -34 -10 -10 -88 60 -107 95 -11 22 -20 43 -20 46 0 3 20 5 44 5
43 0 43 0 50 -41z"/>
<path d="M2405 3413 c11 -61 34 -126 56 -152 19 -23 20 -23 35 -5 29 37 64
113 70 153 l7 41 -87 0 -87 0 6 -37z m141 -10 c-10 -39 -56 -133 -66 -133 -10
0 -45 85 -53 128 l-6 32 65 0 66 0 -6 -27z"/>
<path d="M2601 3398 c-6 -29 -25 -77 -40 -105 -16 -29 -28 -53 -26 -53 11 0
65 28 102 52 45 30 93 101 93 136 0 20 -5 22 -58 22 l-59 0 -12 -52z m104 10
c-10 -33 -57 -90 -92 -110 l-29 -18 25 75 24 75 39 0 c36 0 39 -2 33 -22z"/>
<path d="M2751 3385 c-18 -36 -45 -74 -59 -85 -14 -11 -22 -23 -19 -26 7 -8
115 41 141 64 24 21 76 92 76 104 0 4 -24 8 -52 8 l-53 0 -34 -65z m109 40 c0
-12 -76 -88 -102 -101 l-28 -14 30 47 c17 26 30 53 30 60 0 8 13 13 35 13 19
0 35 -2 35 -5z"/>
<path d="M2513 3171 c-6 -18 -7 -31 -2 -31 12 0 22 24 17 45 -2 12 -7 7 -15
-14z"/>
<path d="M2335 2918 c32 -19 221 -22 275 -4 l45 15 -50 -7 c-65 -9 -188 -9
-245 0 -38 7 -42 6 -25 -4z"/>
<path d="M1888 3655 c-3 -55 1 -66 19 -42 11 14 5 97 -7 97 -5 0 -10 -25 -12
-55z"/>
<path d="M3147 2671 c-26 -48 -47 -91 -47 -94 0 -3 7 -7 15 -11 10 -4 22 8 37
37 l23 42 5 -60 c4 -47 9 -61 23 -63 14 -3 17 4 17 46 0 42 3 50 25 60 25 12
41 51 31 77 -5 13 -63 55 -77 55 -3 0 -27 -40 -52 -89z m92 -2 c-11 -21 -18
-23 -37 -10 -10 6 -11 13 -1 34 11 25 13 26 30 11 14 -13 16 -21 8 -35z"/>
<path d="M1644 2727 c-3 -8 -1 -32 5 -55 5 -23 6 -42 3 -42 -3 0 -22 16 -42
35 -23 22 -40 31 -48 26 -17 -10 58 -184 82 -189 22 -5 20 10 -10 71 l-26 52
36 -34 c30 -29 36 -32 42 -17 3 9 4 30 0 46 -3 17 -4 30 -1 30 2 0 16 -22 31
-50 15 -27 31 -50 36 -50 24 0 14 34 -29 108 -46 78 -68 97 -79 69z"/>
<path d="M1903 2629 c-29 -50 -50 -95 -47 -100 10 -17 31 -9 42 17 18 38 56
30 60 -13 3 -28 27 -52 39 -39 3 3 1 53 -4 113 -11 140 -21 143 -90 22z m57
-4 c0 -16 -6 -25 -15 -25 -18 0 -18 5 -5 31 14 26 20 24 20 -6z"/>
<path d="M2923 2687 c-42 -8 -53 -14 -53 -29 0 -14 5 -17 23 -12 23 5 25 1 40
-77 19 -91 20 -94 40 -86 15 6 16 2 -18 153 -3 16 1 23 15 27 18 5 30 39 13
36 -5 -1 -32 -6 -60 -12z"/>
<path d="M3286 2606 c-25 -47 -46 -90 -46 -96 0 -13 78 -52 90 -45 17 11 11
22 -20 35 -35 14 -36 18 -14 48 12 18 19 20 35 12 20 -11 39 -6 39 10 0 5 -9
12 -20 15 -22 7 -25 22 -10 45 7 12 13 12 33 1 24 -13 47 -9 47 8 0 6 -15 15
-81 49 -4 1 -27 -36 -53 -82z"/>
<path d="M2056 2658 c-43 -66 -37 -170 9 -188 32 -12 65 -1 65 21 0 15 -5 17
-29 13 -35 -7 -44 12 -35 72 9 62 25 81 57 67 20 -9 26 -9 30 1 15 39 -73 51
-97 14z"/>
<path d="M1468 2649 c-21 -11 -38 -22 -38 -24 0 -10 90 -185 95 -185 3 0 23 9
45 20 28 14 38 25 33 36 -5 15 -18 15 -54 0 -10 -5 -19 1 -26 17 -10 22 -8 26
13 36 13 6 24 15 24 20 0 17 -19 22 -41 10 -17 -9 -23 -8 -30 2 -14 23 -10 35
16 47 16 7 23 17 19 27 -8 19 -11 19 -56 -6z"/>
<path d="M2804 2593 l-9 -78 -24 63 c-22 59 -43 83 -58 68 -3 -3 12 -48 33
-98 31 -72 44 -93 59 -93 18 0 21 11 30 103 6 57 9 105 6 107 -18 19 -29 -3
-37 -72z"/>
<path d="M2190 2635 c-33 -35 -42 -145 -15 -175 31 -34 105 -21 91 16 -5 13
-9 15 -18 6 -37 -37 -64 8 -48 83 13 64 22 72 55 51 24 -16 25 -15 25 3 0 20
-27 41 -53 41 -7 0 -24 -11 -37 -25z"/>
<path d="M2317 2633 c-3 -5 -8 -39 -12 -78 -3 -38 -9 -80 -12 -92 -4 -18 -1
-23 15 -23 21 0 24 11 38 138 6 53 4 62 -9 62 -9 0 -18 -3 -20 -7z"/>
<path d="M2525 2627 c-3 -7 -4 -56 -3 -108 3 -104 6 -107 74 -94 47 8 46 35
-1 35 -32 0 -35 2 -35 30 0 26 4 30 26 30 19 0 25 4 22 18 -2 12 -11 16 -31
14 -23 -3 -27 0 -27 22 0 21 5 25 33 28 20 2 32 8 32 18 0 21 -83 27 -90 7z"/>
<path d="M2380 2535 c0 -52 0 -98 -1 -102 0 -5 7 -9 15 -11 11 -2 16 8 18 39
3 36 6 43 28 46 31 4 60 37 60 68 0 36 -26 55 -76 55 l-44 0 0 -95z m75 35 c0
-18 -6 -26 -21 -28 -18 -3 -20 1 -16 28 6 38 37 38 37 0z"/>
<path d="M3408 2538 c-24 -46 -44 -88 -46 -94 -1 -6 14 -18 35 -28 49 -22 82
-11 112 37 44 71 37 123 -19 152 -16 8 -31 15 -34 15 -3 0 -25 -37 -48 -82z
m92 -2 c0 -26 -35 -85 -55 -92 -8 -4 -21 -4 -29 -1 -11 5 -7 20 21 72 28 54
37 64 49 54 8 -6 14 -21 14 -33z"/>
<path d="M1352 2594 c-57 -40 4 -194 78 -194 36 0 65 23 57 44 -6 16 -8 16
-32 0 -24 -16 -27 -16 -45 1 -11 10 -27 37 -36 61 -14 36 -14 47 -4 59 7 9 21
13 31 10 21 -7 25 5 7 23 -16 16 -29 15 -56 -4z"/>
<path d="M1264 2557 c-3 -8 0 -42 5 -77 6 -35 9 -65 7 -67 -2 -2 -20 24 -40
57 -34 55 -53 70 -69 54 -3 -4 21 -46 54 -95 50 -73 64 -87 78 -80 14 8 16 20
10 88 -4 43 -8 90 -8 106 -1 29 -27 39 -37 14z"/>
<path d="M3541 2458 c-40 -87 -42 -93 -24 -106 52 -37 102 -23 133 38 31 60
24 108 -19 137 -19 13 -37 23 -41 23 -4 0 -26 -41 -49 -92z m92 20 c7 -11 4
-28 -12 -61 -23 -47 -43 -63 -65 -50 -10 6 -7 23 15 71 28 63 43 72 62 40z"/>
<path d="M1076 2492 c-5 -8 44 -167 58 -191 9 -13 98 18 93 33 -4 11 -28 13
-56 5 -9 -3 -22 21 -40 75 -26 76 -42 99 -55 78z"/>
<path d="M3722 2458 c-74 -126 -83 -146 -65 -152 16 -6 36 10 45 35 2 5 13 6
25 3 14 -4 23 -15 25 -32 2 -17 10 -28 22 -30 17 -4 18 2 11 95 -4 54 -9 101
-12 106 -10 16 -33 5 -51 -25z m24 -85 c-2 -3 -9 -2 -15 2 -8 4 -7 13 1 28
l13 22 3 -23 c2 -13 1 -26 -2 -29z"/>
<path d="M3844 2465 c-29 -29 -26 -60 9 -85 52 -37 60 -47 53 -65 -5 -14 -14
-16 -41 -12 -37 6 -57 -9 -34 -24 8 -5 31 -9 51 -9 29 0 41 6 54 25 23 35 11
68 -36 99 -48 31 -47 51 0 51 41 0 49 18 15 33 -36 17 -43 15 -71 -13z"/>
<path d="M2125 2218 c-33 -5 -75 -7 -92 -4 -25 4 -33 1 -33 -11 0 -8 -9 -17
-20 -20 -11 -3 -20 -12 -20 -19 0 -8 -9 -14 -20 -14 -20 0 -20 -7 -20 -335 l0
-335 248 0 c212 0 254 -2 282 -17 32 -15 37 -15 81 0 39 14 88 17 293 17 l246
0 0 345 c0 340 0 345 -20 345 -11 0 -23 7 -26 15 -4 8 -17 15 -30 15 -13 0
-24 6 -24 13 0 9 -43 12 -183 12 l-184 0 -63 -33 c-63 -32 -63 -32 -84 -13
-53 50 -172 64 -331 39z m265 -29 c85 -38 80 -17 80 -331 0 -153 -1 -278 -3
-278 -1 0 -20 9 -41 19 -60 31 -132 35 -266 16 -75 -11 -125 -14 -131 -8 -5 5
-8 127 -7 294 l3 284 99 7 c54 4 103 9 110 12 29 12 114 4 156 -15z m560 -295
l0 -302 -24 -6 c-13 -3 -62 1 -108 10 -160 29 -226 29 -301 -1 -16 -7 -17 8
-15 271 l3 278 55 29 54 28 168 -3 168 -3 0 -301z m-950 -8 c0 -243 2 -285 15
-296 13 -11 41 -10 148 3 148 18 215 12 272 -23 60 -37 43 -55 -36 -40 -77 15
-214 15 -308 0 -73 -12 -85 -12 -116 3 l-35 17 -2 255 c-1 140 -2 269 -2 287
-1 17 5 33 12 36 9 3 12 -57 12 -276 0 -314 -2 -307 74 -306 22 0 86 6 142 14
89 12 110 12 180 -2 43 -8 81 -14 82 -13 10 8 -44 26 -109 36 -60 9 -92 8
-187 -6 -86 -13 -120 -15 -138 -6 l-24 11 0 295 c0 190 4 295 10 295 6 0 10
-101 10 -284z m1000 -25 l0 -309 -31 -11 c-45 -15 -80 -14 -188 9 -112 24
-189 25 -238 5 -42 -18 -43 -18 -43 -5 0 16 53 38 107 46 36 4 88 -1 171 -16
75 -14 134 -20 156 -16 l36 7 0 299 c0 260 2 300 15 300 13 0 15 -41 15 -309z
m44 227 c3 -29 6 -169 6 -311 0 -277 1 -274 -52 -264 l-23 4 23 8 22 7 0 304
c0 283 9 376 24 252z m-264 -555 c70 -15 78 -19 49 -21 -21 -2 -64 4 -97 12
-75 20 -118 20 -171 1 -22 -8 -41 -10 -41 -5 0 31 137 38 260 13z m-825 -13
c3 -5 2 -10 -4 -10 -5 0 -13 5 -16 10 -3 6 -2 10 4 10 5 0 13 -4 16 -10z m715
0 c18 -6 9 -8 -35 -8 -44 0 -53 2 -35 8 14 4 30 8 35 8 6 0 21 -4 35 -8z
m-150 -31 c0 -5 -14 -9 -31 -9 -26 0 -29 3 -20 14 12 14 51 10 51 -5z"/>
<path d="M2260 2120 c-8 -5 -11 -12 -7 -16 4 -4 13 -2 19 4 15 15 7 24 -12 12z"/>
<path d="M2300 2110 c0 -5 9 -10 20 -10 11 0 20 5 20 10 0 6 -9 10 -20 10 -11
0 -20 -4 -20 -10z"/>
<path d="M2195 2100 c-3 -5 3 -10 14 -10 12 0 21 5 21 10 0 6 -6 10 -14 10 -8
0 -18 -4 -21 -10z"/>
<path d="M2100 2085 c0 -9 5 -15 11 -13 6 2 11 8 11 13 0 5 -5 11 -11 13 -6 2
-11 -4 -11 -13z"/>
<path d="M2155 2090 c-3 -5 1 -10 10 -10 9 0 13 5 10 10 -3 6 -8 10 -10 10 -2
0 -7 -4 -10 -10z"/>
<path d="M2360 2091 c0 -10 30 -24 37 -17 3 3 2 9 -2 15 -8 13 -35 15 -35 2z"/>
<path d="M2290 2000 c0 -5 5 -10 10 -10 6 0 10 5 10 10 0 6 -4 10 -10 10 -5 0
-10 -4 -10 -10z"/>
<path d="M2340 1994 c0 -8 7 -14 16 -14 9 0 23 -8 30 -17 12 -17 13 -17 14 -1
0 9 -13 23 -30 32 -26 12 -30 12 -30 0z"/>
<path d="M2230 1990 c-8 -5 -12 -12 -9 -15 8 -8 39 5 39 16 0 11 -11 11 -30
-1z"/>
<path d="M2102 1968 c5 -15 28 -23 28 -10 0 5 -7 13 -16 16 -10 4 -14 1 -12
-6z"/>
<path d="M2155 1970 c-3 -5 3 -10 14 -10 11 0 23 5 26 10 3 6 -3 10 -14 10
-11 0 -23 -4 -26 -10z"/>
<path d="M2297 1883 c-4 -3 -7 -11 -7 -17 0 -6 5 -5 12 2 6 6 9 14 7 17 -3 3
-9 2 -12 -2z"/>
<path d="M2325 1880 c-3 -5 1 -13 10 -16 22 -9 29 1 11 15 -10 8 -16 9 -21 1z"/>
<path d="M2228 1873 c-21 -5 -24 -23 -5 -23 7 0 22 7 33 15 20 15 9 18 -28 8z"/>
<path d="M2380 1856 c0 -8 5 -18 10 -21 6 -3 10 1 10 9 0 8 -4 18 -10 21 -5 3
-10 -1 -10 -9z"/>
<path d="M2100 1849 c0 -13 40 -21 67 -14 14 3 23 9 20 12 -9 8 -87 10 -87 2z"/>
<path d="M2277 1749 c-9 -6 -21 -8 -26 -5 -5 3 -15 -1 -22 -10 -11 -14 -8 -15
27 -9 21 4 43 11 47 15 14 12 -7 19 -26 9z"/>
<path d="M2356 1752 c-3 -6 -1 -14 5 -17 15 -10 25 3 12 16 -7 7 -13 7 -17 1z"/>
<path d="M2100 1724 c0 -8 5 -12 10 -9 6 4 8 11 5 16 -9 14 -15 11 -15 -7z"/>
<path d="M2170 1725 c0 -8 5 -15 10 -15 6 0 10 7 10 15 0 8 -4 15 -10 15 -5 0
-10 -7 -10 -15z"/>
<path d="M2396 1725 c-3 -8 -1 -15 4 -15 6 0 10 7 10 15 0 8 -2 15 -4 15 -2 0
-6 -7 -10 -15z"/>
<path d="M2130 1715 c0 -8 5 -15 10 -15 6 0 10 7 10 15 0 8 -4 15 -10 15 -5 0
-10 -7 -10 -15z"/>
<path d="M2620 2087 c0 -9 10 -12 30 -9 17 2 30 8 30 13 0 5 -13 9 -30 9 -18
0 -30 -5 -30 -13z"/>
<path d="M2700 2089 c0 -8 41 -29 56 -29 16 0 -1 18 -26 27 -17 6 -30 7 -30 2z"/>
<path d="M2850 2090 c-8 -5 -12 -12 -9 -15 8 -8 39 5 39 16 0 11 -11 11 -30
-1z"/>
<path d="M2573 2083 c-7 -2 -13 -11 -13 -19 0 -12 4 -12 20 -2 31 20 26 35 -7
21z"/>
<path d="M2780 2070 c0 -5 6 -10 14 -10 8 0 18 5 21 10 3 6 -3 10 -14 10 -12
0 -21 -4 -21 -10z"/>
<path d="M2630 1985 c-8 -9 -8 -15 -2 -15 12 0 26 19 19 26 -2 2 -10 -2 -17
-11z"/>
<path d="M2661 1984 c0 -11 3 -14 6 -6 3 7 2 16 -1 19 -3 4 -6 -2 -5 -13z"/>
<path d="M2686 1985 c-3 -8 -1 -15 4 -15 13 0 22 18 11 24 -5 3 -11 -1 -15 -9z"/>
<path d="M2725 1989 c-10 -15 3 -25 16 -12 7 7 7 13 1 17 -6 3 -14 1 -17 -5z"/>
<path d="M2835 1989 c-4 -5 -4 -13 -1 -18 8 -12 46 -2 46 13 0 14 -37 19 -45
5z"/>
<path d="M2762 1978 c5 -15 48 -18 48 -4 0 7 -12 13 -26 14 -16 1 -24 -3 -22
-10z"/>
<path d="M2577 1973 c-12 -11 -8 -23 7 -23 8 0 16 7 20 15 5 15 -14 21 -27 8z"/>
<path d="M2640 1865 c0 -8 5 -15 10 -15 6 0 10 7 10 15 0 8 -4 15 -10 15 -5 0
-10 -7 -10 -15z"/>
<path d="M2685 1871 c-3 -5 -1 -12 4 -15 5 -3 11 1 15 9 6 16 -9 21 -19 6z"/>
<path d="M2733 1873 c-18 -6 -16 -23 1 -23 17 0 30 16 19 23 -5 2 -14 2 -20 0z"/>
<path d="M2842 1860 c0 -14 2 -19 5 -12 2 6 2 18 0 25 -3 6 -5 1 -5 -13z"/>
<path d="M2871 1864 c0 -11 3 -14 6 -6 3 7 2 16 -1 19 -3 4 -6 -2 -5 -13z"/>
<path d="M2610 1861 c0 -5 5 -13 10 -16 6 -3 10 -2 10 4 0 5 -4 13 -10 16 -5
3 -10 2 -10 -4z"/>
<path d="M2780 1861 c0 -13 12 -20 26 -14 20 8 17 19 -6 20 -11 1 -20 -2 -20
-6z"/>
<path d="M2591 1844 c0 -11 3 -14 6 -6 3 7 2 16 -1 19 -3 4 -6 -2 -5 -13z"/>
<path d="M2637 1753 c-11 -11 -8 -20 8 -20 8 0 15 6 15 14 0 14 -12 17 -23 6z"/>
<path d="M2601 1734 c0 -11 3 -14 6 -6 3 7 2 16 -1 19 -3 4 -6 -2 -5 -13z"/>
<path d="M2690 1739 c0 -5 5 -7 10 -4 6 3 10 8 10 11 0 2 -4 4 -10 4 -5 0 -10
-5 -10 -11z"/>
<path d="M2730 1740 c0 -5 5 -10 11 -10 5 0 7 5 4 10 -3 6 -8 10 -11 10 -2 0
-4 -4 -4 -10z"/>
<path d="M2790 1733 c0 -8 12 -13 35 -13 26 0 33 4 29 14 -7 19 -64 18 -64 -1z"/>
<path d="M2872 1730 c0 -14 2 -19 5 -12 2 6 2 18 0 25 -3 6 -5 1 -5 -13z"/>
<path d="M2760 1729 c0 -5 5 -7 10 -4 6 3 10 8 10 11 0 2 -4 4 -10 4 -5 0 -10
-5 -10 -11z"/>
<path d="M2571 1714 c0 -11 3 -14 6 -6 3 7 2 16 -1 19 -3 4 -6 -2 -5 -13z"/>
<path d="M1497 1380 c-71 -41 -93 -67 -53 -64 14 2 16 -13 16 -112 0 -95 -3
-114 -15 -114 -8 0 -15 -9 -15 -20 0 -19 7 -20 90 -20 83 0 90 1 90 20 0 11
-7 20 -15 20 -12 0 -15 28 -17 168 l-3 168 -78 -46z m53 -150 l0 -140 -30 0
-30 0 0 124 c0 117 1 124 23 139 12 9 25 16 30 16 4 1 7 -62 7 -139z"/>
<path d="M3195 1383 c-67 -42 -94 -73 -61 -73 14 0 16 -16 16 -106 0 -90 -3
-109 -17 -120 -33 -24 -2 -35 87 -32 58 2 85 7 88 16 2 7 -5 16 -17 19 -20 5
-21 13 -23 172 l-3 167 -70 -43z m45 -153 l0 -140 -25 0 -25 0 0 124 c0 118 1
126 22 140 12 9 24 16 25 16 2 0 3 -63 3 -140z"/>
<path d="M3415 1383 c-38 -24 -72 -51 -74 -60 -2 -11 2 -14 13 -10 14 6 16 -7
16 -105 0 -94 -3 -113 -17 -124 -33 -24 -2 -35 87 -32 58 2 85 7 88 16 2 7 -5
16 -17 19 -20 5 -21 13 -23 172 l-3 167 -70 -43z m45 -153 l0 -140 -25 0 -25
0 0 124 c0 118 1 126 22 140 12 9 24 16 25 16 2 0 3 -63 3 -140z"/>
<path d="M1649 1389 c-34 -37 -45 -85 -29 -133 15 -47 44 -66 98 -66 l43 0 -3
-51 c-2 -36 -8 -55 -20 -63 -22 -13 -32 -3 -20 21 12 22 -1 58 -24 67 -22 9
-64 -19 -64 -44 0 -10 10 -31 23 -46 19 -22 33 -27 70 -28 89 -2 142 69 142
189 -1 120 -52 185 -145 185 -34 0 -48 -6 -71 -31z m109 -82 c3 -72 1 -77 -18
-77 -18 0 -20 6 -20 81 0 71 2 80 18 77 14 -3 17 -16 20 -81z m-66 -9 c2 -46
3 -84 2 -86 -1 -1 -12 6 -25 17 -19 15 -24 28 -23 63 1 44 18 88 34 88 4 0 10
-37 12 -82z m129 30 c26 -62 10 -218 -22 -218 -5 0 -9 56 -9 125 0 69 4 125 9
125 5 0 15 -15 22 -32z m-124 -204 c8 -21 -13 -42 -28 -27 -13 13 -5 43 11 43
6 0 13 -7 17 -16z"/>
<path d="M1091 4358 c-7 -19 1 -58 34 -169 32 -107 40 -149 33 -162 -16 -30
-4 -29 40 4 46 34 53 50 21 46 -17 -1 -24 7 -35 37 -13 36 -12 39 9 57 36 30
55 32 87 9 25 -18 29 -26 23 -47 -6 -25 -2 -24 55 21 60 46 84 79 41 55 -18
-9 -36 -1 -132 63 -187 125 -165 114 -176 86z m99 -117 c14 -11 23 -21 20 -23
-3 -2 -15 -12 -27 -22 -22 -18 -23 -18 -33 8 -5 15 -13 38 -16 53 -6 22 -5 24
12 14 11 -6 30 -19 44 -30z"/>
<path d="M842 4147 c-29 -29 -52 -56 -52 -60 0 -3 12 -4 28 -1 24 4 38 -6 121
-90 82 -82 93 -97 81 -111 -7 -8 -10 -19 -6 -22 4 -4 32 18 63 50 32 31 54 60
50 63 -4 4 -13 2 -19 -4 -7 -7 -16 -12 -21 -12 -5 0 -52 41 -104 92 -84 83
-93 95 -88 120 4 15 5 28 3 28 -2 0 -27 -24 -56 -53z"/>
<path d="M4137 4139 c5 -27 0 -35 -52 -82 -113 -101 -143 -121 -160 -107 -32
27 -26 -1 10 -44 45 -55 71 -64 45 -16 -8 15 3 30 71 94 45 42 83 76 84 74 2
-2 -9 -75 -25 -163 -15 -88 -26 -163 -23 -167 9 -17 28 -5 108 66 109 97 129
110 160 102 36 -9 31 4 -21 54 l-46 45 6 -31 c6 -27 1 -36 -54 -88 -34 -32
-63 -56 -66 -53 -7 6 24 210 36 242 6 16 0 29 -31 63 -22 23 -42 42 -44 42 -3
0 -2 -14 2 -31z"/>
<path d="M677 3963 c-33 -45 -34 -70 -2 -43 8 6 20 9 27 5 35 -19 138 -91 138
-96 0 -4 -62 -10 -138 -14 l-137 -7 -28 -38 c-32 -45 -36 -72 -7 -45 20 18 22
17 91 -30 119 -83 150 -113 143 -141 -10 -39 8 -28 44 27 33 51 36 73 7 49
-20 -16 -44 -6 -131 56 -67 48 -76 59 -46 61 9 0 83 4 165 8 127 6 147 9 147
24 -1 9 -45 47 -101 86 -117 82 -133 97 -126 125 9 33 -9 23 -46 -27z"/>
<path d="M4423 3783 c2 -24 -10 -35 -106 -97 -96 -62 -111 -68 -129 -57 -11 7
-22 10 -24 8 -5 -5 75 -137 83 -137 2 0 3 12 1 27 -3 25 7 34 111 100 103 66
116 72 131 58 9 -8 19 -12 22 -9 7 7 -72 134 -83 134 -4 0 -7 -12 -6 -27z"/>
<path d="M4550 3583 c-1 -22 -25 -54 -110 -141 -61 -62 -110 -120 -110 -128 0
-14 18 -15 160 -9 141 7 163 6 186 -10 14 -9 28 -15 30 -12 7 7 -36 97 -47 97
-5 0 -9 -8 -7 -17 3 -16 -10 -19 -102 -24 -58 -4 -107 -5 -110 -3 -2 3 30 39
72 81 66 66 79 75 92 64 22 -19 20 -5 -11 67 -30 67 -43 78 -43 35z"/>
<path d="M427 3540 c-26 -21 -80 -124 -93 -177 -7 -27 -7 -28 13 -10 20 17 24
16 141 -39 105 -49 121 -60 124 -83 4 -22 9 -16 36 43 33 70 35 93 6 64 -15
-14 -20 -14 -65 6 -70 30 -62 49 23 57 76 6 114 27 133 72 17 40 14 43 -19 21
-16 -10 -55 -19 -96 -22 -69 -5 -70 -4 -70 20 0 58 -82 88 -133 48z m81 -66
c13 -9 22 -25 22 -42 0 -51 -11 -55 -73 -27 -31 15 -59 30 -61 34 -3 4 2 17
10 29 18 26 69 29 102 6z"/>
<path d="M4720 3190 c0 -20 -2 -21 -185 -70 l-79 -21 -17 23 c-10 12 -20 21
-22 18 -3 -3 10 -61 27 -130 l33 -125 41 -3 c50 -4 54 9 10 29 -35 15 -63 73
-52 104 5 12 88 45 115 45 4 0 10 -16 14 -36 5 -28 2 -39 -12 -49 -27 -20 -13
-25 37 -13 51 12 75 28 43 28 -24 0 -38 15 -46 51 -6 24 -3 27 49 41 51 15 55
14 64 -3 17 -31 11 -81 -12 -106 -12 -13 -17 -23 -11 -23 17 0 73 22 73 28 0
4 -12 58 -27 119 -26 104 -43 141 -43 93z"/>
<path d="M309 3168 c-95 -55 -114 -201 -37 -275 47 -43 70 -53 129 -53 93 0
153 62 165 168 15 131 -141 228 -257 160z m149 -73 c56 -24 82 -53 82 -92 0
-76 -85 -106 -200 -71 -96 29 -122 124 -45 166 29 17 120 14 163 -3z"/>
<path d="M4800 2811 c0 -24 -18 -28 -161 -37 -102 -6 -117 -5 -122 10 -14 35
-23 13 -19 -46 5 -85 10 -99 25 -68 11 22 20 25 70 28 46 2 57 0 57 -12 0 -9
-13 -22 -30 -31 -49 -25 -98 -74 -104 -103 -3 -15 -2 -40 3 -57 l8 -30 11 26
c11 28 58 71 103 94 26 14 30 13 53 -10 39 -39 103 -28 125 22 19 42 11 233
-10 233 -5 0 -9 -9 -9 -19z m8 -118 c5 -32 -31 -63 -72 -63 -40 0 -68 24 -64
54 2 17 12 22 53 27 71 9 80 7 83 -18z"/>
<path d="M177 2678 c-4 -46 -7 -103 -7 -128 l0 -45 18 23 c18 23 19 24 148 15
120 -7 130 -10 139 -30 18 -41 25 -24 25 60 0 81 -1 82 -18 59 -16 -20 -25
-23 -72 -20 l-55 3 -3 38 c-3 33 0 38 25 49 27 11 27 11 -26 20 -56 8 -93 -4
-52 -17 17 -5 21 -15 21 -46 l0 -39 -61 0 -60 0 3 47 c3 41 7 50 31 61 38 18
34 32 -12 32 l-38 0 -6 -82z"/>
<path d="M4530 2422 c-28 -23 -39 -106 -20 -152 14 -33 55 -60 90 -60 32 0 75
28 95 63 42 70 95 90 117 42 13 -29 -8 -69 -42 -80 -32 -10 -23 -25 15 -25 29
0 37 5 46 28 6 15 9 49 6 76 -5 60 -40 96 -90 96 -26 0 -42 -11 -92 -65 -64
-70 -89 -79 -120 -45 -25 28 -11 67 35 98 19 13 37 27 38 33 6 16 -55 10 -78
-9z"/>
<path d="M482 2408 c-9 -21 -19 -28 -39 -28 -16 -1 -73 -5 -128 -10 -95 -9
-101 -8 -118 12 -10 11 -19 19 -22 16 -2 -2 -1 -36 2 -76 6 -70 16 -91 26 -53
5 19 3 19 205 37 69 6 74 5 79 -15 3 -12 9 -21 14 -21 10 0 10 44 0 115 -7 49
-8 49 -19 23z"/>
<path d="M430 2202 c0 -5 16 -16 35 -25 26 -13 36 -25 45 -58 9 -34 9 -44 -3
-56 -8 -8 -67 -26 -132 -40 -113 -24 -119 -25 -132 -7 -22 30 -24 11 -7 -64
15 -68 34 -96 34 -52 0 25 15 31 154 60 l109 23 18 -24 c14 -18 19 -20 19 -8
0 20 -49 239 -56 251 -7 10 -84 10 -84 0z"/>
<path d="M4478 2150 c-9 -23 -28 -119 -28 -138 0 -14 4 -13 18 5 l17 22 115
-25 c150 -32 150 -32 150 -55 0 -43 19 -14 34 53 17 75 15 94 -8 62 -14 -19
-16 -19 -133 5 -136 27 -150 33 -156 63 -2 17 -5 19 -9 8z"/>
<path d="M570 1897 c0 -22 -23 -47 -124 -134 -124 -108 -124 -108 -103 -126
20 -15 37 -17 171 -11 137 6 150 5 162 -11 23 -31 26 -9 7 44 -19 55 -30 64
-35 29 -2 -19 -10 -24 -44 -26 -40 -3 -42 -2 -58 39 l-17 42 33 27 c30 26 34
27 51 13 22 -21 22 -7 -5 64 -26 70 -38 86 -38 50z m-45 -237 c-3 -6 -27 -10
-53 -10 l-47 1 40 35 39 35 13 -26 c8 -14 11 -30 8 -35z"/>
<path d="M4382 1800 c-29 -76 -29 -98 -2 -65 7 8 18 15 24 15 24 0 240 -88
244 -99 7 -21 -27 -61 -53 -61 -36 0 -31 -17 11 -35 45 -19 44 -19 44 1 0 26
82 244 91 244 20 0 7 16 -30 37 -45 26 -60 19 -30 -13 16 -17 19 -29 14 -53
-4 -17 -10 -33 -15 -36 -9 -5 -227 72 -248 88 -7 6 -11 19 -9 29 3 10 2 20 -3
23 -4 2 -21 -31 -38 -75z"/>
<path d="M672 1545 c-31 -14 -38 -40 -7 -29 8 3 30 1 50 -6 41 -14 65 -52 65
-104 0 -73 -114 -157 -193 -142 -66 12 -106 90 -72 142 24 37 11 41 -30 10
l-35 -27 21 -42 c69 -136 172 -182 275 -122 105 62 108 191 6 298 -41 42 -36
41 -80 22z"/>
<path d="M4237 1493 c-38 -68 -42 -89 -8 -59 18 16 21 15 66 -11 36 -21 58
-46 93 -103 26 -44 45 -86 44 -102 -1 -40 9 -35 40 22 26 47 26 64 0 38 -6 -6
-13 -10 -16 -7 -7 7 -76 118 -76 122 0 3 58 -1 107 -9 23 -3 33 -11 35 -27 2
-17 10 -9 41 41 40 69 47 95 18 68 -16 -14 -32 -16 -115 -10 -82 6 -104 11
-141 35 -34 22 -42 32 -38 48 11 41 -13 20 -50 -46z"/>
<path d="M1097 1004 c-3 -4 -34 -7 -68 -8 -54 -1 -64 -4 -80 -26 -16 -21 -17
-37 -12 -104 9 -110 18 -118 126 -110 90 7 120 23 118 65 0 13 -1 49 -1 80 0
40 -5 63 -17 77 -19 22 -55 36 -66 26z m34 -34 c10 -6 19 -20 19 -31 0 -20 0
-20 -30 1 -45 32 -36 55 11 30z m-137 -31 c-23 -24 -30 -27 -32 -14 -5 22 16
45 41 45 19 0 18 -2 -9 -31z m136 -68 c-4 -9 -22 -29 -39 -46 l-31 -29 -41 41
-41 41 37 40 37 41 43 -36 c33 -27 42 -40 35 -52z m30 -41 c0 -20 -46 -58 -56
-47 -7 7 37 66 49 66 4 1 7 -8 7 -19z m-155 -20 c25 -26 26 -30 9 -30 -26 0
-40 11 -48 38 -10 30 5 28 39 -8z"/>
<path d="M1000 870 c0 -5 11 -17 25 -26 21 -14 31 -15 50 -6 36 17 31 32 -9
25 -19 -3 -36 -1 -40 6 -9 14 -26 15 -26 1z"/>
<path d="M3912 1001 c-76 -7 -96 -26 -88 -81 3 -19 6 -56 6 -81 -1 -51 23 -82
62 -80 13 1 48 1 80 1 69 0 101 22 100 66 -1 16 -2 53 -2 83 0 42 -5 60 -22
78 -22 24 -26 24 -136 14z m-2 -29 c0 -5 -13 -21 -30 -37 -28 -27 -30 -27 -30
-8 0 12 7 29 16 37 16 17 44 22 44 8z m120 -7 c6 -8 10 -21 8 -30 -2 -13 -9
-10 -32 14 -27 29 -28 31 -9 31 11 0 26 -7 33 -15z m-37 -43 l37 -37 -39 -45
-38 -44 -44 41 -44 42 40 40 c21 23 42 41 45 41 3 0 22 -17 43 -38z m57 -83
c0 -23 -22 -49 -41 -49 -19 0 -19 1 3 30 22 31 38 39 38 19z m-157 -24 c32
-29 34 -35 8 -35 -11 0 -27 10 -35 22 -31 43 -16 51 27 13z"/>
<path d="M3965 897 c4 -14 2 -35 -5 -46 -12 -24 1 -28 19 -7 15 18 10 68 -7
74 -9 3 -11 -3 -7 -21z"/>
<path d="M3405 708 c-75 -27 -124 -93 -125 -169 0 -48 38 -119 80 -146 65 -45
168 -24 235 47 27 28 30 37 30 99 0 55 -4 74 -25 104 -43 64 -123 90 -195 65z
m79 -49 c38 -30 75 -98 82 -152 6 -42 4 -49 -24 -76 -36 -37 -58 -39 -103 -8
-83 55 -124 195 -70 238 31 25 82 24 115 -2z"/>
<path d="M1585 680 c17 -19 16 -23 -30 -132 -56 -131 -62 -141 -87 -135 -43
12 -13 -15 48 -43 78 -35 94 -37 69 -10 -16 17 -17 25 -7 58 6 20 18 46 25 56
13 18 18 18 46 7 22 -10 31 -20 31 -37 0 -39 16 -28 38 26 21 49 15 64 -14 35
-13 -13 -19 -12 -49 2 l-33 16 22 51 c12 28 29 52 37 54 8 1 29 -7 47 -18 25
-15 32 -27 32 -50 0 -16 4 -30 8 -30 8 0 36 69 30 75 -7 7 -213 95 -222 95 -5
0 -1 -9 9 -20z"/>
<path d="M3108 581 c-60 -16 -76 -31 -33 -31 13 0 28 -8 33 -17 13 -25 46
-152 41 -157 -2 -3 -53 31 -113 75 -113 84 -113 84 -188 63 -25 -7 -23 -24 2
-24 24 0 33 -19 59 -125 28 -114 29 -130 7 -154 -22 -24 -20 -24 52 -8 29 7
52 17 50 22 -1 6 -8 9 -15 7 -7 -1 -19 8 -27 20 -15 24 -60 187 -53 194 2 3
64 -41 137 -97 82 -62 136 -97 142 -91 5 5 -3 55 -21 130 -35 138 -38 170 -14
187 26 20 2 22 -59 6z"/>
<path d="M1860 574 c0 -4 7 -12 17 -19 15 -11 14 -21 -12 -126 -33 -134 -39
-149 -65 -149 -43 0 -16 -17 51 -33 71 -17 101 -15 66 5 -15 8 -17 17 -12 51
16 94 44 95 65 4 7 -29 17 -60 22 -69 10 -21 59 -48 87 -48 20 0 20 1 -3 35
-31 45 -54 137 -37 143 23 8 60 47 62 67 9 68 -31 100 -158 129 -82 18 -83 18
-83 10z m156 -69 c11 -17 14 -35 10 -60 -8 -40 -36 -60 -73 -50 -27 6 -27 3
-2 98 12 45 40 50 65 12z"/>
<path d="M2220 491 c0 -6 7 -11 16 -11 15 0 16 -14 9 -132 -4 -73 -12 -139
-17 -146 -6 -6 -20 -12 -31 -12 -13 0 -17 -4 -11 -9 5 -5 66 -12 136 -16 120
-6 127 -5 137 14 6 11 11 30 11 42 0 22 0 22 -29 -5 -24 -23 -35 -27 -77 -24
l-49 3 0 60 0 60 37 3 c33 3 38 0 44 -23 9 -37 22 -19 25 37 3 51 -8 76 -18
40 -4 -18 -13 -22 -44 -22 l-39 0 0 44 c0 63 7 76 42 76 40 0 67 -16 81 -48
11 -27 11 -26 15 17 2 23 2 44 0 46 -2 1 -56 6 -120 10 -84 5 -118 4 -118 -4z"/>
<path d="M2609 485 c-32 -17 -53 -65 -44 -97 11 -34 35 -57 88 -84 71 -37 86
-86 35 -118 -23 -14 -75 11 -95 45 -24 40 -37 36 -30 -8 8 -48 29 -63 89 -63
62 0 106 23 123 63 26 62 5 99 -82 147 -62 34 -78 59 -57 88 22 31 57 28 89
-9 31 -37 40 -33 31 16 l-7 35 -57 0 c-31 -1 -69 -7 -83 -15z"/>
</g>
</svg>
